<?xml version="1.0" encoding="utf-8"?>
<!-- Generator: Adobe Illustrator 24.0.1, SVG Export Plug-In . SVG Version: 6.00 Build 0)  -->
<svg version="1.1" id="Layer_1" xmlns="http://www.w3.org/2000/svg" x="0px"
     y="0px"
     viewBox="0 0 82 82" style="enable-background:new 0 0 82 82;" xml:space="preserve">
<style type="text/css">
	.st0{fill-rule:evenodd;clip-rule:evenodd;fill:#515658;}
	.st1{filter:url(#Adobe_OpacityMaskFilter);}
	.st2{fill-rule:evenodd;clip-rule:evenodd;fill:#FFFFFF;}
	.st3{mask:url(#mask-2_1_);}
	.st4{fill-rule:evenodd;clip-rule:evenodd;fill:#C9C9C9;}
	.st5{fill:#06893A;}
	.st6{fill:#FFFFFF;}
	.st7{fill-rule:evenodd;clip-rule:evenodd;fill:#C6C2BF;}
	.st8{fill-rule:evenodd;clip-rule:evenodd;fill:#2F3237;}
</style>
    <g id="illustrator-svg-eksport">
	<g id="illu_checked" transform="translate(22.000000, 16.000000)">
		<g id="dokumenter_x2F_-utklippstavlen" transform="translate(0.600000, 0.200000)">
			<g id="Group_1_">
				<path id="Fill-102" class="st0" d="M34.4,4.1h-32C1.1,4.1,0,5.2,0,6.5v40.7c0,0.2,0,0.5,0.1,0.7c0.1,0.4,0.3,0.7,0.6,1
					C0.8,48.9,0.8,49,0.9,49c0.4,0.3,0.8,0.5,1.3,0.5c0.1,0,0.2,0,0.2,0h32c1.3,0,2.4-1.1,2.4-2.4V6.5C36.8,5.2,35.7,4.1,34.4,4.1"
                />
                <g transform="translate(3.407407, 7.473973)">
					<g id="farger_x2F_-ark_x2F_-lys-grå">
						<g id="Mask">
						</g>
                        <defs>
							<filter id="Adobe_OpacityMaskFilter" filterUnits="userSpaceOnUse" x="-4.3" y="-5.5"
                                    width="37.4" height="49.2">
								<feColorMatrix type="matrix" values="1 0 0 0 0  0 1 0 0 0  0 0 1 0 0  0 0 0 1 0"/>
							</filter>
						</defs>
                        <mask maskUnits="userSpaceOnUse" x="-4.3" y="-5.5" width="37.4" height="49.2" id="mask-2_1_">
							<g class="st1">
								<path id="path-1_1_" class="st2" d="M0,6.6v30.1c0,1.1,0.9,2,1.9,2h25.5c1.1,0,1.9-0.9,1.9-2V2c0-1.1-0.9-2-1.9-2H7.1L0,6.6
									z"/>
							</g>
						</mask>
                        <g id="V_x2699__xFE0F__x2F_farger_x2F_-ark_x2F_-hvit" class="st3">
							<g transform="translate(-4.341289, -5.532681)">
								<rect x="0" y="0" class="st2" width="37.4" height="49.2"/>
							</g>
						</g>
					</g>
                    <path id="Fill-59" class="st4" d="M7.1,0v4.6c0,1.1-0.9,2-2,2H0L7.1,0z"/>
                    <g id="V_x2699__xFE0F__x2F_-dokumenter_x2F_-innhold_x2F_-checked-sirkel"
                       transform="translate(1.085322, 5.532681)">
						<g id="Group" transform="translate(4.341289, 3.319609)">
							<g id="Beta_x2F_-Alt-radio_x2F_-valgt" transform="translate(2.713306, 0.000000)">
								<g id="Alt-radio-valgt-Copy">
									<path id="Shape" class="st5"
                                          d="M6.5,0C2.9,0,0,3,0,6.6s2.9,6.6,6.5,6.6c3.6,0,6.5-3,6.5-6.6S10.1,0,6.5,0z"/>
                                    <path id="Path" class="st6" d="M4.9,8.4c0.1,0,0.1-0.1,0.2-0.1c0.1,0,0.2,0,0.2,0.1L5.1,8.2L4.9,8.4z M5.1,7.4l3.8-3.3
										c0.4-0.3,0.9-0.3,1.2,0c0.3,0.3,0.3,0.9,0,1.2L5.6,9.2C5.5,9.3,5.3,9.4,5.1,9.4c-0.2,0-0.5-0.1-0.6-0.2L3,7.8
										C2.6,7.5,2.6,6.9,3,6.6c0.3-0.3,0.9-0.3,1.2,0L5.1,7.4z"/>
								</g>
							</g>
                            <rect id="Rectangle-4-Copy" x="0" y="16" class="st7" width="18.5" height="1.7"/>
						</g>
					</g>
				</g>
                <path id="Fill-105" class="st8" d="M18.7,5.6c-0.4,0-0.8-0.3-0.8-0.8s0.3-0.8,0.8-0.8c0.4,0,0.8,0.3,0.8,0.8S19.2,5.6,18.7,5.6
					 M23.4,2.4h-2.8V1.9c0-1.1-0.8-1.9-1.8-1.9c-1,0-1.8,0.9-1.8,1.9v0.5h-2.8c-1.4,0-2.5,1.2-2.5,2.6v3.1h14.3V5
					C25.9,3.6,24.8,2.4,23.4,2.4"/>
			</g>
		</g>
	</g>
</g>
</svg>
