<svg width="80" height="80" viewBox="0 0 80 80" fill="none" xmlns="http://www.w3.org/2000/svg">
    <mask id="mask0" mask-type="alpha" maskUnits="userSpaceOnUse" x="0" y="0" width="80" height="80">
        <path fill-rule="evenodd" clip-rule="evenodd" d="M40 80C62.0914 80 80 62.0914 80 40C80 17.9086 62.0914 0 40 0C17.9086 0 0 17.9086 0 40C0 62.0914 17.9086 80 40 80Z" fill="white"/>
    </mask>
    <g mask="url(#mask0)">
        <path fill-rule="evenodd" clip-rule="evenodd" d="M54.7891 38.0525C53.4647 42.3349 50.8718 45.8896 47.5489 48.065L47.7191 49.972L47.7181 50.0496L45.9219 65.7692H34.5295L34.4822 65.4389L32.2798 50.0225L32.3614 48.0944C29.0216 45.9247 26.4141 42.3642 25.0821 38.0705C25.0369 38.0747 24.9912 38.0769 24.9449 38.0769C24.0833 38.0769 23.4008 37.3267 23.4008 36.4178V31.2751C23.4008 30.6659 23.7074 30.1277 24.1691 29.839C24.8894 20.238 31.6564 12.6923 39.9325 12.6923C48.1864 12.6923 54.9397 20.1974 55.6907 29.7611C56.2298 30.0223 56.5993 30.6056 56.5993 31.2751V36.4178C56.5993 37.3271 55.9177 38.0769 55.0552 38.0769C54.9643 38.0769 54.8754 38.0685 54.7891 38.0525Z" fill="#E7E9E9"/>
        <path fill-rule="evenodd" clip-rule="evenodd" d="M47.1476 48.5972C47.0828 52.03 43.9075 55.5519 40 55.5519C36.0754 55.5519 32.8895 51.9993 32.8516 48.5524C30.8181 49.0659 27.7141 50.6146 25.1522 53.2029C22.6712 55.7093 20.6985 59.4767 20.6985 62.3994V80H59.3014V62.3994C59.3014 59.4708 57.2862 55.6969 54.7593 53.1877C52.2325 50.6784 49.1941 49.1506 47.1476 48.5972Z" fill="#0C5EA8"/>
        <path fill-rule="evenodd" clip-rule="evenodd" d="M32.7232 48.6715C30.8502 49.349 27.7079 50.83 25.3308 53.079C18.3823 51.5384 15.2941 47.8776 15.2941 47.8776C15.2941 47.8776 21.6959 41.6561 21.6997 30.7746V30.763C21.6997 18.0215 28.6038 9.23071 39.9783 9.23071C51.3544 9.23071 58.2585 18.0215 58.2585 30.763H58.2994C58.2994 41.6523 64.7058 47.8776 64.7058 47.8776C64.7058 47.8776 61.6176 51.5384 54.6691 53.0769L54.6586 53.079C52.3626 50.9979 49.0327 49.3929 47.221 48.7143L47.2231 48.7136L47.1511 47.907L47.1901 47.8402C50.6084 45.6616 53.2608 41.9915 54.5395 37.5567C54.696 37.6434 54.8729 37.6923 55.06 37.6923C55.7001 37.6923 56.2182 37.123 56.2182 36.4178V31.2751C56.2182 30.6718 55.8389 30.1674 55.3284 30.0343C55.3279 30.0273 55.3275 30.0204 55.327 30.0134C39.1653 31.8102 33.3435 20.7699 32.8657 20.7692C32.8657 20.7692 27.4984 24.6153 24.9332 29.1881C24.9332 29.1881 24.5422 30.0514 24.5403 30.0804C24.1011 30.2614 23.7879 30.7275 23.7879 31.2751V36.4178C23.7879 37.123 24.3073 37.6923 24.9461 37.6923C25.0877 37.6923 25.2233 37.6644 25.3486 37.6134C26.6415 42.0504 29.3107 45.7165 32.7451 47.8807L32.7578 47.907L32.7255 48.6715H32.7232Z" fill="#C86151"/>
        <path fill-rule="evenodd" clip-rule="evenodd" d="M34.48 33.7471C33.4824 33.8275 33.2031 32.2537 33.5037 31.2259C33.5603 31.0312 33.8905 30.1443 34.4752 30.1443C35.0591 30.1443 35.317 30.629 35.3528 30.7124C35.7824 31.7144 35.5714 33.6586 34.48 33.7471" fill="#3E3832"/>
        <path fill-rule="evenodd" clip-rule="evenodd" d="M46.0507 33.7471C47.0483 33.8275 47.3275 32.2537 47.0269 31.2259C46.9704 31.0312 46.6402 30.1443 46.0555 30.1443C45.4715 30.1443 45.2137 30.629 45.1778 30.7124C44.7483 31.7144 44.9593 33.6586 46.0507 33.7471" fill="#3E3832"/>
        <path d="M40.6351 35.298C41.2317 35.1962 41.6391 35.2601 41.785 35.4586C42.3358 36.209 42.1596 37.0029 41.2147 37.6547C40.7179 37.9972 40.0341 38.1178 39.672 37.9401C39.495 37.8533 39.288 37.942 39.2096 38.1382C39.1313 38.3345 39.2113 38.564 39.3883 38.6508C39.9867 38.9444 40.9068 38.7822 41.585 38.3146C42.8691 37.4289 43.1629 36.1046 42.3286 34.9679C41.9756 34.4876 41.3506 34.3896 40.5284 34.5299C40.3371 34.5625 40.2059 34.761 40.2353 34.9731C40.2648 35.1852 40.4437 35.3307 40.6351 35.298Z" fill="#3E3832"/>
        <path d="M44.9493 40.4553C44.9142 40.5293 44.8339 40.671 44.7048 40.8575C44.4862 41.1733 44.2117 41.4899 43.8783 41.7852C42.8848 42.665 41.5917 43.1738 39.9459 43.1272C38.3412 43.0819 37.0539 42.581 36.0446 41.7732C35.674 41.4767 35.3681 41.1591 35.1236 40.8425C34.9794 40.6558 34.8893 40.5143 34.8499 40.4405C34.7552 40.2631 34.5224 40.1901 34.3299 40.2774C34.1374 40.3647 34.0582 40.5793 34.1529 40.7567C34.21 40.8636 34.321 41.0381 34.4907 41.2578C34.7694 41.6186 35.1159 41.9783 35.5353 42.3139C36.6746 43.2258 38.1307 43.7923 39.9221 43.843C41.7876 43.8957 43.279 43.3089 44.4165 42.3016C44.7969 41.9647 45.1095 41.6041 45.3597 41.2427C45.5118 41.0229 45.6107 40.8485 45.6613 40.7419C45.7471 40.5606 45.6573 40.3496 45.4607 40.2705C45.2641 40.1914 45.0351 40.2741 44.9493 40.4553Z" fill="#3E3832"/>
        <path fill-rule="evenodd" clip-rule="evenodd" d="M31.3027 9.05976C33.9053 7.69638 36.8493 6.9231 39.9708 6.9231C43.2812 6.9231 46.3938 7.78758 49.1086 9.30842V9.60891C54.1001 12.5206 57.4767 17.7458 57.6378 23.7421H58.7015C59.4561 23.7421 60.0735 24.3385 60.0735 25.0673V36.937C60.0735 37.6659 59.4561 38.2622 58.7015 38.2622L58.0495 38.2622C56.7898 42.3383 50.8495 45.443 43.652 45.5437V45.9814C43.652 46.499 43.2137 46.9231 42.6779 46.9231H37.2644C36.7278 46.9231 36.2896 46.499 36.2896 45.9814V43.9594C36.2896 43.4418 36.7278 43.0177 37.2644 43.0177H42.6779C43.2137 43.0177 43.652 43.4418 43.652 43.9594V44.6519C49.5122 44.0704 54.3277 41.5829 56.3482 38.2622H55.7535C54.999 38.2622 54.3816 37.6659 54.3816 36.937V25.0673C54.3816 24.3385 54.999 23.7421 55.7535 23.7421H56.4414C55.6949 18.9049 52.9553 14.744 49.1086 12.1647V12.195C46.4277 10.4761 43.3062 9.48615 39.9708 9.48615C36.8283 9.48615 33.8754 10.3631 31.3027 11.9011V11.8611C27.2098 14.4103 24.2765 18.7103 23.5 23.7421H24.2463C25.0009 23.7421 25.6183 24.3385 25.6183 25.0673V36.937C25.6183 37.6659 25.0009 38.2622 24.2463 38.2622H21.2983C20.5438 38.2622 19.9264 37.6659 19.9264 36.937V25.0673C19.9264 24.3385 20.5438 23.7421 21.2983 23.7421H22.3035C22.4697 17.5594 26.0539 12.1966 31.3027 9.3442V9.05976Z" fill="#3E3832"/>
        <path fill-rule="evenodd" clip-rule="evenodd" d="M53.9563 72.5H41.0429C40.4666 72.5 40 72.0263 40 71.4413V64.3929C40 63.8079 40.4666 63.3334 41.0429 63.3334H53.9563C54.5326 63.3334 55 63.8079 55 64.3929V71.4413C55 72.0263 54.5326 72.5 53.9563 72.5" fill="white"/>
        <path fill-rule="evenodd" clip-rule="evenodd" d="M48.2759 64.7883H46.9377C46.8386 64.7883 46.7587 64.7088 46.7587 64.6102V64.3857C46.7587 64.2879 46.8386 64.2076 46.9377 64.2076H48.2759C48.375 64.2076 48.4549 64.2879 48.4549 64.3857V64.6102C48.4549 64.7088 48.375 64.7883 48.2759 64.7883" fill="#3E3832"/>
        <path fill-rule="evenodd" clip-rule="evenodd" d="M47.2194 64.5833H47.9946V62.5H47.2194V64.5833Z" fill="#78706A"/>
        <path fill-rule="evenodd" clip-rule="evenodd" d="M47.6587 70.8313C46.0488 70.8313 44.7434 69.526 44.7434 67.9159C44.7434 66.3056 46.0488 65 47.6587 65C49.2692 65 50.5747 66.3056 50.5747 67.9159C50.5747 69.526 49.2692 70.8313 47.6587 70.8313Z" fill="#C30000"/>
        <path fill-rule="evenodd" clip-rule="evenodd" d="M43.3334 69.1889L43.9293 67.714H44.5019L43.9067 69.1889H43.3334Z" fill="#C30000"/>
        <path fill-rule="evenodd" clip-rule="evenodd" d="M50.687 69.1889L51.2753 67.714H51.5875L50.9992 69.1889H50.687Z" fill="#C30000"/>
        <path fill-rule="evenodd" clip-rule="evenodd" d="M51.844 69.1889L52.4322 67.714H52.598L52.0097 69.1889H51.844Z" fill="#C30000"/>
        <path fill-rule="evenodd" clip-rule="evenodd" d="M50.1456 67.714H49.6273C49.6273 67.714 49.5916 67.714 49.579 67.7455L49.2921 68.6236L49.0055 67.7455C48.9929 67.714 48.957 67.714 48.957 67.714H47.9604C47.9388 67.714 47.9208 67.732 47.9208 67.7534V68.0516C47.9208 67.8151 47.6691 67.714 47.5217 67.714C47.1916 67.714 46.9707 67.9314 46.9019 68.2619C46.8982 68.0426 46.8799 67.9641 46.8209 67.8836C46.7937 67.8442 46.7545 67.8111 46.7118 67.7836C46.6239 67.7321 46.545 67.714 46.3753 67.714H46.1761C46.1761 67.714 46.1401 67.714 46.1274 67.7455L45.9462 68.1947V67.7534C45.9462 67.732 45.9282 67.714 45.9067 67.714H45.4458C45.4458 67.714 45.4102 67.714 45.3972 67.7455L45.2088 68.2126C45.2088 68.2126 45.19 68.2593 45.233 68.2593H45.4102V69.1493C45.4102 69.1714 45.4276 69.1889 45.4498 69.1889H45.9067C45.9282 69.1889 45.9462 69.1714 45.9462 69.1493V68.2593H46.1243C46.2265 68.2593 46.2481 68.2621 46.2879 68.2806C46.3119 68.2897 46.3334 68.308 46.3452 68.329C46.3693 68.3744 46.3753 68.4289 46.3753 68.5895V69.1493C46.3753 69.1714 46.3931 69.1889 46.415 69.1889H46.8529C46.8529 69.1889 46.9024 69.1889 46.922 69.14L47.0191 68.9001C47.1481 69.0809 47.3605 69.1889 47.6245 69.1889H47.6822C47.6822 69.1889 47.732 69.1889 47.7517 69.14L47.9208 68.7214V69.1493C47.9208 69.1714 47.9388 69.1889 47.9604 69.1889H48.4075C48.4075 69.1889 48.4568 69.1889 48.4766 69.14C48.4766 69.14 48.6554 68.6961 48.6561 68.6927H48.6564C48.6632 68.6558 48.6166 68.6558 48.6166 68.6558H48.457V67.8941L48.9591 69.14C48.9787 69.1889 49.0281 69.1889 49.0281 69.1889H49.5562C49.5562 69.1889 49.6059 69.1889 49.6255 69.14L50.1821 67.7618C50.2014 67.714 50.1456 67.714 50.1456 67.714V67.714ZM47.9208 68.6558H47.6205C47.5009 68.6558 47.4037 68.559 47.4037 68.4393C47.4037 68.3199 47.5009 68.2225 47.6205 68.2225H47.7044C47.8237 68.2225 47.9208 68.3199 47.9208 68.4393V68.6558Z" fill="white"/>
    </g>
</svg>
