<?xml version="1.0" encoding="utf-8"?>
<!-- Generator: Adobe Illustrator 24.0.1, SVG Export Plug-In . SVG Version: 6.00 Build 0)  -->
<svg version="1.1" id="Layer_1" xmlns="http://www.w3.org/2000/svg" x="0px"
     y="0px"
     viewBox="0 0 82 82" style="enable-background:new 0 0 82 82;" xml:space="preserve">
<style type="text/css">
	.st0{fill-rule:evenodd;clip-rule:evenodd;fill:#A5A3A1;}
	.st1{fill-rule:evenodd;clip-rule:evenodd;fill:#403A33;}
	.st2{fill-rule:evenodd;clip-rule:evenodd;fill:#117938;}
	.st3{fill-rule:evenodd;clip-rule:evenodd;fill:#F1EFEF;}
	.st4{fill-rule:evenodd;clip-rule:evenodd;fill:#FFE5C2;}
</style>
    <g id="illustrator-svg-eksport">
	<g id="spotlight_x2F_-gjenstand-" transform="translate(22.000000, 21.000000)">
		<g id="gjenstander_x2F_kjøretøy_x2F_-lastebil">
			<g id="Group">
				<path id="Fill-12" class="st0" d="M36.3,0H1.4C1,0,0.7,0.3,0.7,0.7v27.2c0,0.4,0.3,0.7,0.7,0.7h34.9c0.4,0,0.7-0.3,0.7-0.7V0.7
					C37,0.3,36.7,0,36.3,0"/>
                <path id="Fill-13" class="st1"
                      d="M26.9,43.5h0.9c0.9,0,1.6-0.7,1.6-1.6v-2.5h-4.1v2.5C25.3,42.8,26,43.5,26.9,43.5"/>
                <path id="Fill-14" class="st1"
                      d="M10,43.5h0.9c0.9,0,1.6-0.7,1.6-1.6v-2.5H8.4v2.5C8.4,42.8,9.1,43.5,10,43.5"/>
                <path id="Fill-15" class="st1" d="M2,13.5h1.2v-0.8H2c-0.6,0-1,0.5-1,1v0.5H0.8C0.3,14.2,0,14.6,0,15v4c0,0.4,0.3,0.8,0.8,0.8H2
					c0.4,0,0.8-0.3,0.8-0.8v-4c0-0.4-0.3-0.8-0.8-0.8H1.7v-0.5C1.7,13.6,1.9,13.5,2,13.5"/>
                <path id="Fill-16" class="st1" d="M35.7,13.5h-1.2v-0.8h1.2c0.6,0,1,0.5,1,1v0.5H37c0.4,0,0.8,0.3,0.8,0.8v4
					c0,0.4-0.3,0.8-0.8,0.8h-1.2c-0.4,0-0.8-0.3-0.8-0.8v-4c0-0.4,0.3-0.8,0.8-0.8H36v-0.5C36,13.6,35.9,13.5,35.7,13.5"/>
                <path id="Fill-17" class="st2" d="M31.9,6.1h-26c-1.5,0-2.7,1.2-2.7,2.7v5l0,1v18.9c0,2.9,2.3,5.2,5.2,5.2h21
					c2.9,0,5.2-2.3,5.2-5.2V14.8l0-1v-5C34.6,7.3,33.4,6.1,31.9,6.1"/>
                <polygon id="Fill-18" class="st3" points="5.6,20.6 32.1,20.6 32.1,12.7 5.6,12.7 				"/>
                <path id="Fill-19" class="st4" d="M29.7,35.6c-1.1,0-1.9-0.9-1.9-1.9s0.9-1.9,1.9-1.9c1.1,0,1.9,0.9,1.9,1.9
					S30.8,35.6,29.7,35.6"/>
                <path id="Fill-20" class="st4"
                      d="M8,35.6c-1.1,0-1.9-0.9-1.9-1.9S7,31.8,8,31.8c1.1,0,1.9,0.9,1.9,1.9S9.1,35.6,8,35.6"/>
			</g>
		</g>
	</g>
</g>
</svg>
