<svg width="64" height="64" viewBox="0 0 64 64" fill="none" xmlns="http://www.w3.org/2000/svg">
<circle cx="32" cy="32" r="32" fill="#C7CE66"/>
<mask id="mask0" mask-type="alpha" maskUnits="userSpaceOnUse" x="0" y="0" width="64" height="64">
<circle cx="32" cy="32" r="32" fill="#DADE99"/>
</mask>
<g mask="url(#mask0)">
<path fill-rule="evenodd" clip-rule="evenodd" d="M16 21V48.2313C16 49.2081 16.7854 50 17.7545 50H41.2464C42.2146 50 43 49.2081 43 48.2313V16.7687C43 15.7919 42.2146 15 41.2464 15H22.5L16 21Z" fill="white"/>
<path fill-rule="evenodd" clip-rule="evenodd" d="M22.5 15V19.1787C22.5 20.1847 21.664 21 20.6322 21H16L22.5 15Z" fill="#19548A"/>
<path fill-rule="evenodd" clip-rule="evenodd" d="M21 28H38V26.5H21V28Z" fill="#19548A"/>
<path fill-rule="evenodd" clip-rule="evenodd" d="M21 31.5H38V30H21V31.5Z" fill="#19548A"/>
<path fill-rule="evenodd" clip-rule="evenodd" d="M21 35H38V33.5H21V35Z" fill="#19548A"/>
<path fill-rule="evenodd" clip-rule="evenodd" d="M21 38.5H38V37H21V38.5Z" fill="#19548A"/>
<path fill-rule="evenodd" clip-rule="evenodd" d="M21 42H38V40.5H21V42Z" fill="#19548A"/>
<path fill-rule="evenodd" clip-rule="evenodd" d="M21 24.5H38V23H21V24.5Z" fill="#19548A"/>
<path opacity="0.503185" fill-rule="evenodd" clip-rule="evenodd" d="M41.3282 23.1286C43.8059 26.6432 42.9736 31.507 39.4686 33.9915C35.9631 36.4759 31.1132 35.6409 28.6355 32.1263C26.1573 28.6117 26.9906 23.7479 30.4956 21.2634C34.0006 18.779 38.8505 19.614 41.3282 23.1286Z" fill="#669DB4"/>
<path fill-rule="evenodd" clip-rule="evenodd" d="M49.2395 47.5568C48.4177 48.1397 47.2824 47.9432 46.7019 47.1189L40.4979 38.3053C39.9174 37.4811 40.1121 36.3399 40.9334 35.7569C41.7547 35.174 42.89 35.3705 43.4705 36.1948L49.675 45.0084C50.255 45.8327 50.0608 46.9738 49.2395 47.5568Z" fill="#669DB4"/>
<path fill-rule="evenodd" clip-rule="evenodd" d="M30.6046 21.4183C27.1902 23.8387 26.3763 28.5938 28.7895 32.0173C31.2027 35.4407 35.9446 36.2568 39.359 33.8369C42.7735 31.4164 43.5874 26.6613 41.1741 23.2379C38.7609 19.8145 34.019 18.9978 30.6046 21.4183ZM40.0682 34.843C36.1008 37.6551 30.5911 36.7073 27.7857 32.7284C24.9813 28.7499 25.9275 23.2249 29.8955 20.4122C33.8629 17.5995 39.3725 18.5478 42.1779 22.5263C44.9823 26.5053 44.0361 32.0303 40.0682 34.843Z" fill="#19548A"/>
<path fill-rule="evenodd" clip-rule="evenodd" d="M42.1304 37.1743C41.5903 37.5643 41.0067 37.6707 40.6243 37.1185L39.3473 35.2734C38.9649 34.7207 39.0939 33.9577 39.634 33.5677C40.1747 33.1777 40.9217 33.3084 41.304 33.8606L42.5811 35.7058C42.9629 36.258 42.6706 36.7843 42.1304 37.1743Z" fill="#19548A"/>
<path fill-rule="evenodd" clip-rule="evenodd" d="M41.2 38.9017L47.3055 47.6216C47.5074 47.9102 47.9017 47.9787 48.187 47.7748C48.4728 47.5709 48.5401 47.1729 48.3381 46.8843L42.4955 38.5392C42.0109 38.8715 41.5547 38.9599 41.2 38.9017Z" fill="#19548A"/>
<path fill-rule="evenodd" clip-rule="evenodd" d="M47.1591 36.4608C47.8749 36.4608 48.4545 36.9823 48.4545 37.6239V40.465C48.4545 39.976 49.0344 39.5784 49.7497 39.5784C50.465 39.5784 51.0454 39.976 51.0454 40.465V41.6547C51.0454 41.081 51.6253 40.6176 52.3412 40.6176C53.0565 40.6176 53.6364 41.081 53.6364 41.6547V42.6437C53.6364 42.0985 54.1003 41.6569 54.6722 41.6569C55.2456 41.6569 55.7091 42.0985 55.7091 42.6437V53.1407C55.7091 53.507 55.4998 53.8265 55.1886 53.9968L55.1909 54.0151C55.1909 54.0151 54.5251 54.1275 54.5251 55.3104V56.7255H47.1385L47.0321 54.729C46.5663 54.729 45.2326 53.101 44.5345 51.987C43.8359 50.8704 42.9916 49.3563 42.6296 47.8677C42.3427 46.6904 41.8246 44.222 41.8246 44.222C41.8246 44.222 41.3593 42.6566 42.3744 42.2281C43.3915 41.7996 44.4916 44.1789 44.4916 44.1789C44.4916 44.1789 45.3174 46.1946 45.5926 46.6246C45.6866 46.771 45.7806 46.8574 45.8636 46.9078V37.6239C45.8636 36.9823 46.4433 36.4608 47.1591 36.4608Z" fill="#E7E9E9"/>
<path fill-rule="evenodd" clip-rule="evenodd" d="M45.8636 64H56.2273V55.6863H45.8636V64Z" fill="#E0F5FB"/>
<path fill-rule="evenodd" clip-rule="evenodd" d="M45.8636 58.8039H56.2273V55.6863H45.8636V58.8039Z" fill="#669DB4"/>
<path fill-rule="evenodd" clip-rule="evenodd" d="M54.6727 57.2451C54.6727 56.9581 54.4402 56.7255 54.1539 56.7255C53.868 56.7255 53.6364 56.9581 53.6364 57.2451C53.6364 57.5317 53.868 57.7647 54.1539 57.7647C54.4402 57.7647 54.6727 57.5317 54.6727 57.2451Z" fill="#19548A"/>
</g>
</svg>
